<?xml version="1.0" encoding="UTF-8" standalone="no" ?>
<!DOCTYPE svg PUBLIC "-//W3C//DTD SVG 1.1//EN" "http://www.w3.org/Graphics/SVG/1.1/DTD/svg11.dtd">
<svg xmlns="http://www.w3.org/2000/svg" xmlns:xlink="http://www.w3.org/1999/xlink" version="1.1" width="303" height="352" viewBox="0 0 303 352" xml:space="preserve">
<desc>Created with Fabric.js 4.6.0</desc>
<defs>
</defs>
<g transform="matrix(1 0 0 1 152.58 175.79)" id="dzX1SZwMlVMqdiYwE7sHV"  >
<g style="" vector-effect="non-scaling-stroke"   >
		<g transform="matrix(1.54 0 0 1.54 121.53 -134.91)" id="tw7MjOlmSCs4QrJxoWja8"  >
<linearGradient id="SVGID_20" gradientUnits="userSpaceOnUse" gradientTransform="matrix(1 0 0 -1 0 -76)"  x1="357.5224915" y1="-238.4415131" x2="312.0876465" y2="-238.4415131">
<stop offset="0%" style="stop-color:rgb(190,190,190);stop-opacity: 1"/>
<stop offset="50%" style="stop-color:rgb(116,116,116);stop-opacity: 1"/>
<stop offset="100%" style="stop-color:rgb(68,68,68);stop-opacity: 1"/>
</linearGradient>
<path style="stroke: none; stroke-width: 1; stroke-dasharray: none; stroke-linecap: butt; stroke-dashoffset: 0; stroke-linejoin: miter; stroke-miterlimit: 4; fill: url(#SVGID_20); fill-rule: nonzero; opacity: 1;" vector-effect="non-scaling-stroke"  paint-order="stroke"  transform=" translate(-328.94, -162.44)" d="M 309.2600708 188.78685 L 315.4260254 136.09616089999997 L 348.6099548 136.09616089999997 L 348.6099548 149.32489009999998 C 348.6098938 171.1859283 331.0090027 188.78685 309.2600708 188.78685 L 309.2600708 188.78685 z" stroke-linecap="round" />
</g>
		<g transform="matrix(1.54 0 0 1.54 -77.74 73.25)" id="hZTV6loLLzl01Gmb0leAA"  >
<linearGradient id="SVGID_21" gradientUnits="userSpaceOnUse" gradientTransform="matrix(1 0 0 1 0 -1156)"  x1="155.6349792" y1="1453.5314941" x2="242.1692352" y2="1453.5314941">
<stop offset="0%" style="stop-color:rgb(190,190,190);stop-opacity: 1"/>
<stop offset="50%" style="stop-color:rgb(116,116,116);stop-opacity: 1"/>
<stop offset="100%" style="stop-color:rgb(68,68,68);stop-opacity: 1"/>
</linearGradient>
<path style="stroke: none; stroke-width: 1; stroke-dasharray: none; stroke-linecap: butt; stroke-dashoffset: 0; stroke-linejoin: miter; stroke-miterlimit: 4; fill: url(#SVGID_21); fill-rule: nonzero; opacity: 1;" vector-effect="non-scaling-stroke"  paint-order="stroke"  transform=" translate(-199.51, -297.53)" d="M 179.8876038 279.3699951 C 179.8876038 279.3699951 165.08937079999998 279.25787349999996 156.68128969999998 290.8050232 L 156.68128969999998 302.3521118 L 171.59162909999998 311.769165 L 206.9056092 315.6929321 L 210.6051636 311.2086181 L 242.3316956 279.48211660000004 L 179.887619 279.48211660000004 L 179.8876038 279.3699951 L 179.8876038 279.3699951 z" stroke-linecap="round" />
</g>
		<g transform="matrix(1.54 0 0 1.54 -63.61 119.08)" id="KPXTQJyxITErsLuABVmll"  >
<linearGradient id="SVGID_22" gradientUnits="userSpaceOnUse" gradientTransform="matrix(1 0 0 1 0 -1156)"  x1="266.4332581" y1="1483.2961426" x2="154.0510712" y2="1483.2960205">
<stop offset="0%" style="stop-color:rgb(190,190,190);stop-opacity: 1"/>
<stop offset="50%" style="stop-color:rgb(116,116,116);stop-opacity: 1"/>
<stop offset="100%" style="stop-color:rgb(68,68,68);stop-opacity: 1"/>
</linearGradient>
<path style="stroke: none; stroke-width: 1; stroke-dasharray: none; stroke-linecap: butt; stroke-dashoffset: 0; stroke-linejoin: miter; stroke-miterlimit: 4; fill: url(#SVGID_22); fill-rule: nonzero; opacity: 1;" vector-effect="non-scaling-stroke"  paint-order="stroke"  transform=" translate(-208.69, -327.3)" d="M 231.2330017 311.2086182 L 206.9056091 311.2086182 L 202.75761409999998 311.2086182 C 201.63653559999997 311.2086182 200.6275787 311.2086182 199.6185913 311.09649659999997 C 175.6275177 310.199646 163.07144159999999 299.54940799999997 156.9055176 290.6928711 C 151.9727783 297.5314636 149.2821808 308.40588379999997 153.4301605 325.7826233 C 159.7082062 347.7557678 179.9997253 363.899292 204.1029053 363.899292 L 209.9325104 363.899292 L 209.9325104 363.899292 L 263.0716248 363.899292 C 264.7532349 363.899292 265.9864502 362.5539856 265.9864502 360.9844666 L 265.9864502 311.2085877 L 231.2330017 311.2086182 L 231.2330017 311.2086182 z" stroke-linecap="round" />
</g>
		<g transform="matrix(1.54 0 0 1.54 62.24 0.07)" id="aDv5GJrBYOIaE7A1YgHml"  >
<linearGradient id="SVGID_23" gradientUnits="userSpaceOnUse" gradientTransform="matrix(1 0 0 1 0 -1156)"  x1="290.4259338" y1="1270.1977539" x2="290.4259338" y2="1543.4886475">
<stop offset="0%" style="stop-color:rgb(190,190,190);stop-opacity: 1"/>
<stop offset="50%" style="stop-color:rgb(116,116,116);stop-opacity: 1"/>
<stop offset="100%" style="stop-color:rgb(68,68,68);stop-opacity: 1"/>
</linearGradient>
<path style="stroke: none; stroke-width: 1; stroke-dasharray: none; stroke-linecap: butt; stroke-dashoffset: 0; stroke-linejoin: miter; stroke-miterlimit: 4; fill: url(#SVGID_23); fill-rule: nonzero; opacity: 1;" vector-effect="non-scaling-stroke"  paint-order="stroke"  transform=" translate(-290.43, -250)" d="M 316.7712708 136.0961609 C 287.62323000000004 136.0961609 264.080597 159.6388092 264.080597 188.78685000000002 L 264.080597 249.9977265 L 264.080597 311.2086182 L 264.080597 312.441803 C 264.080597 356.1638794 232.46618660000001 364.1235352 232.24197400000003 363.8993225 L 264.080597 363.8993225 C 293.2286378 363.8993225 316.7712708 340.35665889999996 316.7712708 311.2086182 L 316.7712708 311.2086182 L 316.7712708 249.9977265 L 316.7712708 187.7778779 C 316.7712708 143.8316041 348.6098938 136.0961457 348.6098938 136.0961457 L 316.7712708 136.0961609 L 316.7712708 136.0961609 z" stroke-linecap="round" />
</g>
</g>
</g>
</svg>